<svg xmlns="http://www.w3.org/2000/svg" version="1.1" xmlns:xlink="http://www.w3.org/1999/xlink" xmlns:svgjs="http://svgjs.dev/svgjs" width="1000" height="1000" viewBox="0 0 1000 1000"><rect width="1000" height="1000" fill="#ffffff"></rect><g transform="matrix(0.7,0,0,0.7,149.57605563665675,406.2137977452446)"><svg viewBox="0 0 396 106" data-background-color="#ffffff" preserveAspectRatio="xMidYMid meet" height="267" width="1000" xmlns="http://www.w3.org/2000/svg" xmlns:xlink="http://www.w3.org/1999/xlink"><g id="tight-bounds" transform="matrix(1,0,0,1,0.24008861730862918,0.19102225513969984)"><svg viewBox="0 0 395.52 105.61830123868553" height="105.61830123868553" width="395.52"><g><svg viewBox="0 0 395.52 105.61830123868553" height="105.61830123868553" width="395.52"><g><svg viewBox="0 0 395.52 105.61830123868553" height="105.61830123868553" width="395.52"><g id="textblocktransform"><svg viewBox="0 0 395.52 105.61830123868553" height="105.61830123868553" width="395.52" id="textblock"><g><svg viewBox="0 0 395.52 85.33238092445022" height="85.33238092445022" width="395.52"><path d="M394.594 18.302C392.735 9.445 387.435 6.982 387.435 6.982 371.165-2.141 350.86-0.175 332.619 1.136 300.414 1.19 268.339 3.138 236.208 4.183 168.767 4.343 100.749 1.721 33.643 8.187 27.339 10.171-6.54 8.577 1.121 19.436 3.129 23.953 10.456 28.967 10.232 33.112 11.236 33.838 12.631 32.173 13.226 33.218 15.309 36.035 18.711 34.706 21.501 36.371 17.614 40.818 20.403 44.52 23.062 48.4 18.377 49.41 12.371 48.931 9.675 52.279 9.396 54.706 7.89 54.246 6.235 54.139 5.026 54.069 2.59 54.334 2.999 55.096 4.394 57.7-1.594 59.206 2.162 61.757-0.422 64.52 3.948 66.912 3.353 69.906 3.278 70.508 3.687 71.022 4.338 71.164 7.22 71.925 3.018 73.413 3.464 75.025 33.029 86.044 65.104 78.427 95.394 83.493 103.259 79.95 97.346 84.751 100.489 84.007 102.943 83.139 104.728 86.735 107.499 84.698 107.927 84.113 107.276 82.731 108.8 82.997 109.6 83.139 110.307 83.103 110.418 82.289 110.586 81.066 109.117 81.828 108.726 81.19 112.947 77.966 111.906 85.637 115.866 85.318 115.68 84.379 114.528 83.033 116.889 83.21 119.232 81.863 119.306 80.747 121.389 83.777 121.463 84.432 121.835 84.893 122.43 85.212 128.938 81.917 135.409 86.381 142.233 84.893 146.417 83.263 150.433 85.778 154.672 85.158 156.16 84.662 157.666 83.777 159.098 85.265 176.632 85.584 195.319 84.255 211.943 85.318 256.364 83.334 303.835 86.133 350.674 83.511 361.719 82.501 373.192 81.066 383.958 79.915 383.958 79.915 392.679 76.761 392.679 62.59S394.538 50.189 394.817 38.905C395.096 27.62 396.398 27.16 394.538 18.302Z" opacity="1" fill="#5ebc67" data-fill-palette-color="tertiary"></path><g transform="matrix(1,0,0,1,55.76832,26.068561146666667)"><svg width="283.98335999999995" viewBox="2.5 -35.45000076293945 307.5299987792969 35.95000076293945" height="33.195258631116886" data-palette-color="#ffffff"><path d="M12.3-21.1L18.75-21.1Q19.7-21.1 19.7-17.6L19.7-17.6Q19.7-16.55 19.48-15.13 19.25-13.7 18.65-13.7L18.65-13.7 12.3-13.7 12.3-8.7 21.5-8.7Q22.35-8.7 22.65-6.5L22.65-6.5Q22.8-5.55 22.8-4.48 22.8-3.4 22.5-1.7 22.2 0 21.5 0L21.5 0 4.4 0Q2.5 0 2.5-1.55L2.5-1.55 2.5-33.7Q2.5-35 3.65-35L3.65-35 21.55-35Q22.6-35 22.6-30.58 22.6-26.15 21.55-26.15L21.55-26.15 12.3-26.15 12.3-21.1ZM33.95-1.05L25.2-34.35Q25.2-34.6 27.37-34.83 29.55-35.05 30.95-35.05L30.95-35.05Q36.5-35.05 36.75-33.6L36.75-33.6 41.05-11.6 45.1-33.6Q45.4-35.05 51.3-35.05L51.3-35.05Q52.75-35.05 54.95-34.85 57.15-34.65 57.15-34.4L57.15-34.4 48.3-1.3Q48.1-0.5 45.35-0.25L45.35-0.25Q41.1 0.2 37.62-0.08 34.15-0.35 33.95-1.05L33.95-1.05ZM75.07 0.5Q68.05 0.5 63.62-4.1 59.2-8.7 59.2-17.53 59.2-26.35 63.67-30.9 68.15-35.45 75.22-35.45 82.3-35.45 86.65-30.98 91-26.5 91-17.43 91-8.35 86.55-3.93 82.1 0.5 75.07 0.5ZM75.1-25.85Q72.7-25.85 71.07-23.65 69.45-21.45 69.45-17.48 69.45-13.5 71-11.38 72.55-9.25 75.07-9.25 77.6-9.25 79.17-11.4 80.75-13.55 80.75-17.55 80.75-21.55 79.12-23.7 77.5-25.85 75.1-25.85ZM94.49-2.95L94.49-2.95 94.49-34.05Q94.49-35.1 99.57-35.1 104.64-35.1 104.64-34.05L104.64-34.05 104.64-9.55 112.34-9.55Q113.24-9.55 113.59-7.2L113.59-7.2Q113.74-6.05 113.74-4.85 113.74-3.65 113.59-2.4L113.59-2.4Q113.19 0 112.29 0L112.29 0 96.89 0Q95.79 0 95.14-0.9 94.49-1.8 94.49-2.95ZM122.54-1.05L113.79-34.35Q113.79-34.6 115.97-34.83 118.14-35.05 119.54-35.05L119.54-35.05Q125.09-35.05 125.34-33.6L125.34-33.6 129.64-11.6 133.69-33.6Q133.99-35.05 139.89-35.05L139.89-35.05Q141.34-35.05 143.54-34.85 145.74-34.65 145.74-34.4L145.74-34.4 136.89-1.3Q136.69-0.5 133.94-0.25L133.94-0.25Q129.69 0.2 126.22-0.08 122.74-0.35 122.54-1.05L122.54-1.05ZM158.59-21.1L165.04-21.1Q165.99-21.1 165.99-17.6L165.99-17.6Q165.99-16.55 165.76-15.13 165.54-13.7 164.94-13.7L164.94-13.7 158.59-13.7 158.59-8.7 167.79-8.7Q168.64-8.7 168.94-6.5L168.94-6.5Q169.09-5.55 169.09-4.48 169.09-3.4 168.79-1.7 168.49 0 167.79 0L167.79 0 150.69 0Q148.79 0 148.79-1.55L148.79-1.55 148.79-33.7Q148.79-35 149.94-35L149.94-35 167.84-35Q168.89-35 168.89-30.58 168.89-26.15 167.84-26.15L167.84-26.15 158.59-26.15 158.59-21.1ZM188.49-25.9L188.49-0.8Q188.49 0.2 183.54 0.2 178.59 0.2 178.59-0.8L178.59-0.8 178.59-25.9 172.59-25.9Q171.74-25.9 171.39-28.2L171.39-28.2Q171.24-29.3 171.24-30.45 171.24-31.6 171.39-32.7L171.39-32.7Q171.74-35 172.59-35L172.59-35 194.34-35Q195.19-35 195.54-32.7L195.54-32.7Q195.69-31.6 195.69-30.45 195.69-29.3 195.54-28.2L195.54-28.2Q195.19-25.9 194.34-25.9L194.34-25.9 188.49-25.9ZM220.78 0.1L220.78 0.1Q216.43 0.1 216.08-1.3L216.08-1.3 214.43-7.75 206.48-7.75 205.03-1.55Q204.73 0 200.23 0L200.23 0Q197.83 0 196.68-0.28 195.53-0.55 195.53-0.7L195.53-0.7 204.38-34.55Q204.38-34.95 211.23-34.95 218.08-34.95 218.08-34.55L218.08-34.55 226.73-0.65Q226.73-0.3 224.43-0.1 222.13 0.1 220.78 0.1ZM210.43-24.45L207.73-14.1 212.98-14.1 210.73-24.45 210.43-24.45ZM231.33-12.2L231.33-12.2Q232.28-11.45 234.61-10.15 236.93-8.85 239.06-8.85 241.18-8.85 241.18-10.5L241.18-10.5Q241.18-11.25 240.58-11.83 239.98-12.4 238.38-13.15 236.78-13.9 235.98-14.33 235.18-14.75 233.86-15.73 232.53-16.7 231.83-17.75L231.83-17.75Q229.83-20.6 229.83-25 229.83-29.4 233.11-32.43 236.38-35.45 241.68-35.45L241.68-35.45Q245.28-35.45 248.33-34.68 251.38-33.9 251.48-32.65L251.48-32.65Q251.48-32.5 251.48-32.35L251.48-32.35Q251.48-30.6 250.38-27.93 249.28-25.25 248.83-24.95L248.83-24.95Q245.63-26.6 243.11-26.6 240.58-26.6 240.58-24.8L240.58-24.8Q240.58-23.7 242.43-22.85L242.43-22.85Q242.83-22.65 243.58-22.3 244.33-21.95 245.31-21.48 246.28-21 247.41-20.28 248.53-19.55 249.83-18.35L249.83-18.35Q252.48-15.85 252.48-11.75L252.48-11.75Q252.48-6.4 249.53-3 246.58 0.4 240.43 0.5L240.43 0.5Q237.43 0.5 235.01 0 232.58-0.5 230.78-1.95 228.98-3.4 228.98-5.45 228.98-7.5 229.73-9.53 230.48-11.55 231.33-12.2ZM266.58-12.75L266.58-0.7Q266.58 0.05 261.88 0.05L261.88 0.05 259.08-0.1Q256.58-0.3 256.58-0.8L256.58-0.8 256.58-34.35Q256.58-35.2 261.58-35.2 266.58-35.2 266.58-34.35L266.58-34.35 266.58-21.55 272.68-34.35Q273.03-35.05 276.68-35.05L276.68-35.05Q283.33-35.05 283.68-33.9L283.68-33.9Q283.68-33.8 283.63-33.7L283.63-33.7 274.93-18 285.03-4.05Q285.03-3.95 284.08-3.2L284.08-3.2Q281.78-1.2 278.68-0.05L278.68-0.05Q277.73 0.3 276.78 0.3L276.78 0.3 275.58 0.2Q273.98-0.2 273.08-1.85L273.08-1.85 267.38-12.75 266.58-12.75ZM288.88-12.2L288.88-12.2Q289.83-11.45 292.15-10.15 294.48-8.85 296.6-8.85 298.73-8.85 298.73-10.5L298.73-10.5Q298.73-11.25 298.13-11.83 297.53-12.4 295.93-13.15 294.33-13.9 293.53-14.33 292.73-14.75 291.4-15.73 290.08-16.7 289.38-17.75L289.38-17.75Q287.38-20.6 287.38-25 287.38-29.4 290.65-32.43 293.93-35.45 299.23-35.45L299.23-35.45Q302.83-35.45 305.88-34.68 308.93-33.9 309.03-32.65L309.03-32.65Q309.03-32.5 309.03-32.35L309.03-32.35Q309.03-30.6 307.93-27.93 306.83-25.25 306.38-24.95L306.38-24.95Q303.18-26.6 300.65-26.6 298.13-26.6 298.13-24.8L298.13-24.8Q298.13-23.7 299.98-22.85L299.98-22.85Q300.38-22.65 301.13-22.3 301.88-21.95 302.85-21.48 303.83-21 304.95-20.28 306.08-19.55 307.38-18.35L307.38-18.35Q310.03-15.85 310.03-11.75L310.03-11.75Q310.03-6.4 307.08-3 304.13 0.4 297.98 0.5L297.98 0.5Q294.98 0.5 292.55 0 290.13-0.5 288.33-1.95 286.53-3.4 286.53-5.45 286.53-7.5 287.28-9.53 288.03-11.55 288.88-12.2Z" opacity="1" transform="matrix(1,0,0,1,0,0)" fill="#ffffff" class="wordmark-text-0" data-fill-palette-color="quaternary" id="text-0"></path></svg></g></svg></g><g transform="matrix(1,0,0,1,75.54432000000001,93.16898480104977)"><svg viewBox="0 0 244.43135999999996 12.44931643763576" height="12.44931643763576" width="244.43135999999996"><g transform="matrix(1,0,0,1,0,0)"><svg width="244.43135999999996" viewBox="3.5 -37.599998474121094 874.6099853515625 44.54999923706055" height="12.44931643763576" data-palette-color="#5ebc67"><path d="M18.85-37.6L18.85-37.6Q21.25-37.6 23.53-36.8 25.8-36 27.63-34.6 29.45-33.2 30.63-31.38 31.8-29.55 32.05-27.5L32.05-27.5Q32.1-27.2 32.05-27.08 32-26.95 31.7-26.95L31.7-26.95 28.8-26.7Q28.6-26.65 28.5-26.78 28.4-26.9 28.35-27.15L28.35-27.15Q27.55-30.45 25.05-32.52 22.55-34.6 18.95-34.6L18.95-34.6Q13.4-34.6 10.43-30.53 7.45-26.45 7.45-18.45L7.45-18.45Q7.45-10.7 10.4-6.65 13.35-2.6 19.3-2.6L19.3-2.6Q22.95-2.6 25.4-4.38 27.85-6.15 29.35-10L29.35-10Q29.45-10.2 29.8-10.15L29.8-10.15 32.25-9.5Q32.35-9.45 32.43-9.35 32.5-9.25 32.45-8.95L32.45-8.95Q32-7.45 31.15-6.05 30.3-4.65 29.1-3.45 27.9-2.25 26.35-1.35 24.8-0.45 22.98 0.03 21.15 0.5 19.05 0.5L19.05 0.5Q14.2 0.5 10.7-1.78 7.2-4.05 5.35-8.3 3.5-12.55 3.5-18.5L3.5-18.5Q3.5-24.5 5.35-28.78 7.2-33.05 10.63-35.33 14.05-37.6 18.85-37.6L18.85-37.6ZM50.05 0.5L50.05 0.5Q46.35 0.5 43.52-1.23 40.7-2.95 39.15-6.03 37.6-9.1 37.6-13.1L37.6-13.1Q37.6-17.2 39.17-20.33 40.75-23.45 43.57-25.23 46.4-27 50.1-27L50.1-27Q53.85-27 56.62-25.25 59.4-23.5 60.95-20.38 62.5-17.25 62.5-13.2L62.5-13.2Q62.5-9.15 60.92-6.08 59.35-3 56.57-1.25 53.8 0.5 50.05 0.5L50.05 0.5ZM50.15-2.15L50.15-2.15Q52.95-2.15 54.95-3.5 56.95-4.85 58.02-7.35 59.1-9.85 59.1-13.2L59.1-13.2Q59.1-16.6 58-19.13 56.9-21.65 54.87-23.03 52.85-24.4 50.1-24.4L50.1-24.4Q47.35-24.4 45.3-23.03 43.25-21.65 42.12-19.13 41-16.6 41-13.2L41-13.2Q41-9.85 42.12-7.35 43.25-4.85 45.3-3.5 47.35-2.15 50.15-2.15L50.15-2.15ZM88.09 0L88.09 0Q87.8 0 87.62-0.18 87.45-0.35 87.45-0.65L87.45-0.65 87.45-2.95Q87.45-3.35 87.3-3.4 87.15-3.45 86.84-3.15L86.84-3.15Q86.34-2.65 85.34-1.78 84.34-0.9 82.75-0.2 81.15 0.5 78.84 0.5L78.84 0.5Q75.7 0.5 73.15-0.98 70.59-2.45 69.07-5.43 67.55-8.4 67.55-12.8L67.55-12.8Q67.55-17.05 69.05-20.23 70.55-23.4 73.25-25.2 75.95-27 79.45-27L79.45-27Q82.05-27 83.72-26.15 85.4-25.3 86.59-24.3L86.59-24.3Q87.05-23.95 87.2-24.05 87.34-24.15 87.34-24.65L87.34-24.65 87.34-36.5Q87.34-37.1 87.9-37.1L87.9-37.1 90.15-37.1Q90.65-37.1 90.65-36.55L90.65-36.55 90.65-0.7Q90.65-0.3 90.5-0.15 90.34 0 89.95 0L89.95 0 88.09 0ZM87.34-20.9L87.34-20.9Q85.65-22.55 83.92-23.48 82.2-24.4 80.09-24.4L80.09-24.4Q77.45-24.4 75.37-23.08 73.3-21.75 72.12-19.2 70.95-16.65 70.95-13L70.95-13Q70.95-9.2 72.17-6.78 73.4-4.35 75.4-3.2 77.4-2.05 79.75-2.05L79.75-2.05Q81.9-2.05 83.62-3.1 85.34-4.15 86.34-5.65 87.34-7.15 87.34-8.55L87.34-8.55 87.34-20.9ZM100.74-11.75L100.74-11.75Q100.74-9.2 101.99-7 103.24-4.8 105.32-3.48 107.39-2.15 109.99-2.15L109.99-2.15Q112.74-2.15 114.77-3.25 116.79-4.35 118.19-6.5L118.19-6.5Q118.34-6.75 118.49-6.78 118.64-6.8 118.84-6.7L118.84-6.7 120.54-5.75Q120.94-5.55 120.59-5.15L120.59-5.15Q119.34-3.25 117.77-2 116.19-0.75 114.19-0.13 112.19 0.5 109.79 0.5L109.79 0.5Q106.09 0.5 103.29-1.2 100.49-2.9 98.89-5.98 97.29-9.05 97.29-13L97.29-13Q97.29-17.4 98.94-20.5 100.59-23.6 103.39-25.3 106.19-27 109.74-27L109.74-27Q113.34-27 115.99-25.4 118.64-23.8 120.09-20.8 121.54-17.8 121.54-13.55L121.54-13.55Q121.54-13.2 121.47-12.85 121.39-12.5 120.84-12.5L120.84-12.5 101.09-12.5Q100.94-12.5 100.84-12.28 100.74-12.05 100.74-11.75L100.74-11.75ZM100.79-14.85L117.34-14.85Q117.89-14.85 118.04-15 118.19-15.15 118.19-15.55L118.19-15.55Q118.19-17.95 117.17-19.98 116.14-22 114.27-23.23 112.39-24.45 109.79-24.45L109.79-24.45Q106.84-24.45 104.84-23.03 102.84-21.6 101.82-19.4 100.79-17.2 100.79-14.85L100.79-14.85ZM164.94-37.1L164.94-37.1Q165.24-37.1 165.34-36.93 165.44-36.75 165.29-36.45L165.29-36.45 153.39-16.4Q153.19-16.15 153.16-15.9 153.14-15.65 153.14-15.05L153.14-15.05 153.14-0.8Q153.14 0 152.24 0L152.24 0 150.09 0Q149.64 0 149.49-0.18 149.34-0.35 149.34-0.65L149.34-0.65 149.34-14.7Q149.34-15.15 149.26-15.38 149.19-15.6 149.04-15.9L149.04-15.9 136.89-36.35Q136.74-36.7 136.86-36.9 136.99-37.1 137.39-37.1L137.39-37.1 139.99-37.1Q140.39-37.1 140.56-36.98 140.74-36.85 140.94-36.55L140.94-36.55 150.74-19.8Q151.04-19.2 151.31-19.2 151.59-19.2 151.89-19.7L151.89-19.7 161.59-36.55Q161.84-36.9 161.99-37 162.14-37.1 162.54-37.1L162.54-37.1 164.94-37.1ZM177.38 0.5L177.38 0.5Q173.69 0.5 170.86-1.23 168.03-2.95 166.49-6.03 164.94-9.1 164.94-13.1L164.94-13.1Q164.94-17.2 166.51-20.33 168.09-23.45 170.91-25.23 173.74-27 177.44-27L177.44-27Q181.19-27 183.96-25.25 186.74-23.5 188.28-20.38 189.84-17.25 189.84-13.2L189.84-13.2Q189.84-9.15 188.26-6.08 186.69-3 183.91-1.25 181.13 0.5 177.38 0.5L177.38 0.5ZM177.49-2.15L177.49-2.15Q180.28-2.15 182.28-3.5 184.28-4.85 185.36-7.35 186.44-9.85 186.44-13.2L186.44-13.2Q186.44-16.6 185.34-19.13 184.24-21.65 182.21-23.03 180.19-24.4 177.44-24.4L177.44-24.4Q174.69-24.4 172.63-23.03 170.59-21.65 169.46-19.13 168.34-16.6 168.34-13.2L168.34-13.2Q168.34-9.85 169.46-7.35 170.59-4.85 172.63-3.5 174.69-2.15 177.49-2.15L177.49-2.15ZM204.93-2.25L204.93-2.25Q207.28-2.25 209.41-3.5 211.53-4.75 213.68-6.95L213.68-6.95 213.68-25.9Q213.68-26.5 214.33-26.5L214.33-26.5 216.43-26.5Q216.98-26.5 216.98-25.9L216.98-25.9 216.98-0.55Q216.98 0 216.48 0L216.48 0 214.33 0Q213.83 0 213.83-0.5L213.83-0.5 213.83-3.55Q213.83-3.8 213.73-3.85 213.63-3.9 213.38-3.7L213.38-3.7Q210.48-1.25 208.36-0.38 206.23 0.5 204.18 0.5L204.18 0.5Q201.88 0.5 200.06-0.43 198.23-1.35 197.16-3.08 196.08-4.8 196.08-7L196.08-7 196.08-25.85Q196.08-26.5 196.73-26.5L196.73-26.5 198.83-26.5Q199.38-26.5 199.38-25.9L199.38-25.9 199.38-8.1Q199.38-5.5 200.86-3.88 202.33-2.25 204.93-2.25L204.93-2.25ZM225.88 0L225.88 0Q225.58 0 225.43-0.15 225.28-0.3 225.28-0.6L225.28-0.6 225.28-25.95Q225.28-26.5 225.78-26.5L225.78-26.5 227.93-26.5Q228.38-26.5 228.38-26L228.38-26 228.38-22.7Q228.38-22.45 228.53-22.4 228.68-22.35 228.88-22.55L228.88-22.55Q230.23-24.15 231.53-25.13 232.83-26.1 234.11-26.55 235.38-27 236.68-27L236.68-27Q238.48-27 238.48-26.4L238.48-26.4 238.48-24.1Q238.48-23.7 238.08-23.75L238.08-23.75Q237.73-23.8 237.26-23.85 236.78-23.9 236.13-23.9L236.13-23.9Q234.98-23.9 233.68-23.38 232.38-22.85 231.23-21.95 230.08-21.05 229.33-19.95 228.58-18.85 228.58-17.7L228.58-17.7 228.58-0.6Q228.58 0 227.93 0L227.93 0 225.88 0ZM269.28 0.5L269.28 0.5Q264.58 0.5 261.15-1.75 257.73-4 255.9-8.22 254.08-12.45 254.08-18.4L254.08-18.4Q254.08-24.5 255.98-28.8 257.88-33.1 261.33-35.35 264.78-37.6 269.43-37.6L269.43-37.6Q272.78-37.6 275.63-36.23 278.48-34.85 280.38-32.6 282.28-30.35 282.63-27.75L282.63-27.75Q282.68-27.45 282.63-27.33 282.58-27.2 282.33-27.1L282.33-27.1 279.48-26.65Q279.28-26.6 279.18-26.7 279.08-26.8 279.03-27.05L279.03-27.05Q278.63-29.2 277.3-30.9 275.98-32.6 273.95-33.6 271.93-34.6 269.38-34.6L269.38-34.6Q265.73-34.6 263.2-32.75 260.68-30.9 259.35-27.35 258.03-23.8 258.03-18.7L258.03-18.7Q258.03-13.35 259.33-9.75 260.63-6.15 263.2-4.35 265.78-2.55 269.48-2.55L269.48-2.55Q272.08-2.55 274.05-3.45 276.03-4.35 277.3-5.85 278.58-7.35 279.25-9.1 279.93-10.85 279.98-12.45L279.98-12.45 279.98-15.8Q280.03-16.3 279.48-16.3L279.48-16.3 270.78-16.3Q270.53-16.3 270.43-16.4 270.33-16.5 270.33-16.7L270.33-16.7 270.33-18.45Q270.33-18.85 270.68-18.85L270.68-18.85 282.88-18.85Q283.13-18.85 283.28-18.7 283.43-18.55 283.43-18.35L283.43-18.35 283.43-0.6Q283.43-0.25 283.28-0.13 283.13 0 282.88 0L282.88 0 281.83 0Q281.53 0 281.3-0.08 281.08-0.15 281.03-0.55L281.03-0.55 280.73-5.45Q280.68-5.7 280.55-5.7 280.43-5.7 280.28-5.45L280.28-5.45Q279.33-3.8 277.83-2.45 276.33-1.1 274.23-0.3 272.13 0.5 269.28 0.5L269.28 0.5ZM292.07 0L292.07 0Q291.77 0 291.62-0.15 291.47-0.3 291.47-0.6L291.47-0.6 291.47-25.95Q291.47-26.5 291.97-26.5L291.97-26.5 294.12-26.5Q294.57-26.5 294.57-26L294.57-26 294.57-22.7Q294.57-22.45 294.72-22.4 294.87-22.35 295.07-22.55L295.07-22.55Q296.42-24.15 297.72-25.13 299.02-26.1 300.3-26.55 301.57-27 302.87-27L302.87-27Q304.67-27 304.67-26.4L304.67-26.4 304.67-24.1Q304.67-23.7 304.27-23.75L304.27-23.75Q303.92-23.8 303.45-23.85 302.97-23.9 302.32-23.9L302.32-23.9Q301.17-23.9 299.87-23.38 298.57-22.85 297.42-21.95 296.27-21.05 295.52-19.95 294.77-18.85 294.77-17.7L294.77-17.7 294.77-0.6Q294.77 0 294.12 0L294.12 0 292.07 0ZM320.27 0.5L320.27 0.5Q316.57 0.5 313.75-1.23 310.92-2.95 309.37-6.03 307.82-9.1 307.82-13.1L307.82-13.1Q307.82-17.2 309.4-20.33 310.97-23.45 313.8-25.23 316.62-27 320.32-27L320.32-27Q324.07-27 326.85-25.25 329.62-23.5 331.17-20.38 332.72-17.25 332.72-13.2L332.72-13.2Q332.72-9.15 331.15-6.08 329.57-3 326.8-1.25 324.02 0.5 320.27 0.5L320.27 0.5ZM320.37-2.15L320.37-2.15Q323.17-2.15 325.17-3.5 327.17-4.85 328.25-7.35 329.32-9.85 329.32-13.2L329.32-13.2Q329.32-16.6 328.22-19.13 327.12-21.65 325.1-23.03 323.07-24.4 320.32-24.4L320.32-24.4Q317.57-24.4 315.52-23.03 313.47-21.65 312.35-19.13 311.22-16.6 311.22-13.2L311.22-13.2Q311.22-9.85 312.35-7.35 313.47-4.85 315.52-3.5 317.57-2.15 320.37-2.15L320.37-2.15ZM371.87-26.5L371.87-26.5Q372.17-26.5 372.29-26.33 372.42-26.15 372.32-25.9L372.32-25.9 364.77-0.6Q364.72-0.25 364.49-0.13 364.27 0 363.87 0L363.87 0 361.92 0Q361.12 0 360.92-0.6L360.92-0.6 354.57-20.55Q354.37-21 354.24-21 354.12-21 354.02-20.55L354.02-20.55 347.97-0.6Q347.92-0.25 347.72-0.13 347.52 0 347.12 0L347.12 0 345.02 0Q344.22 0 344.02-0.6L344.02-0.6 336.17-25.85Q336.07-26.15 336.19-26.33 336.32-26.5 336.67-26.5L336.67-26.5 338.87-26.5Q339.17-26.5 339.34-26.4 339.52-26.3 339.57-26L339.57-26 345.97-5.2Q346.12-4.7 346.32-4.73 346.52-4.75 346.67-5.25L346.67-5.25 352.97-26.1Q353.07-26.3 353.22-26.4 353.37-26.5 353.62-26.5L353.62-26.5 355.47-26.5Q355.72-26.5 355.92-26.4 356.12-26.3 356.17-26L356.17-26 362.77-5.2Q362.92-4.7 363.12-4.73 363.32-4.75 363.47-5.25L363.47-5.25 369.57-26.05Q369.67-26.3 369.87-26.4 370.07-26.5 370.32-26.5L370.32-26.5 371.87-26.5ZM390.67-23.95L384.12-23.95Q383.72-23.95 383.72-23.55L383.72-23.55 383.72-6.75Q383.72-4.2 384.52-3.4 385.32-2.6 386.87-2.6L386.87-2.6 390.52-2.6Q390.77-2.6 390.89-2.48 391.02-2.35 391.02-2.1L391.02-2.1 391.02-0.75Q391.02-0.35 390.52-0.2L390.52-0.2Q390.07-0.15 389.19-0.1 388.32-0.05 387.47-0.03 386.62 0 386.17 0L386.17 0Q383.07 0 381.74-1.43 380.42-2.85 380.42-6.05L380.42-6.05 380.42-23.5Q380.42-23.95 379.97-23.95L379.97-23.95 375.72-23.95Q375.27-23.95 375.27-24.35L375.27-24.35 375.27-26.1Q375.27-26.5 375.67-26.5L375.67-26.5 380.12-26.5Q380.42-26.5 380.47-26.9L380.47-26.9 380.97-34.9Q380.97-35.5 381.42-35.5L381.42-35.5 383.22-35.5Q383.77-35.5 383.77-34.85L383.77-34.85 383.77-26.9Q383.77-26.5 384.12-26.5L384.12-26.5 390.72-26.5Q391.12-26.5 391.12-26.1L391.12-26.1 391.12-24.35Q391.12-23.95 390.67-23.95L390.67-23.95ZM397.51 0L397.51 0Q396.91 0 396.91-0.6L396.91-0.6 396.91-36.55Q396.91-37.1 397.41-37.1L397.41-37.1 399.56-37.1Q400.06-37.1 400.06-36.6L400.06-36.6 400.06-23.1Q400.06-22.85 400.19-22.8 400.31-22.75 400.51-22.95L400.51-22.95Q402.31-24.3 403.79-25.2 405.26-26.1 406.74-26.55 408.21-27 409.91-27L409.91-27Q413.86-27 415.91-24.95 417.96-22.9 417.96-19.5L417.96-19.5 417.96-0.65Q417.96 0 417.36 0L417.36 0 415.26 0Q414.96 0 414.81-0.15 414.66-0.3 414.66-0.6L414.66-0.6 414.66-18.65Q414.66-21.3 413.34-22.78 412.01-24.25 409.11-24.25L409.11-24.25Q407.51-24.25 406.14-23.78 404.76-23.3 403.36-22.38 401.96-21.45 400.21-20L400.21-20 400.21-0.6Q400.21 0 399.56 0L399.56 0 397.51 0ZM424.36 6.95L424.36 6.95Q424.16 6.95 424.09 6.78 424.01 6.6 424.11 6.35L424.11 6.35 426.31 0.7Q426.61 0 425.91 0L425.91 0 425.36 0Q424.81 0 424.81-0.5L424.81-0.5 424.81-4.5Q424.81-4.9 425.21-4.9L425.21-4.9 428.71-4.9Q429.11-4.9 429.11-4.5L429.11-4.5 429.11-0.95Q429.11-0.6 428.96-0.3L428.96-0.3 425.66 6.5Q425.56 6.75 425.34 6.85 425.11 6.95 424.81 6.95L424.81 6.95 424.36 6.95ZM461.81 0.5L461.81 0.5Q456.96 0.5 453.48-1.68 450.01-3.85 448.13-8.08 446.26-12.3 446.26-18.35L446.26-18.35Q446.26-24.55 448.16-28.85 450.06-33.15 453.56-35.38 457.06-37.6 461.86-37.6L461.86-37.6Q466.66-37.6 470.11-35.38 473.56-33.15 475.43-28.9 477.31-24.65 477.31-18.45L477.31-18.45Q477.31-12.35 475.46-8.13 473.61-3.9 470.11-1.7 466.61 0.5 461.81 0.5L461.81 0.5ZM461.91-2.55L461.91-2.55Q467.61-2.55 470.48-6.45 473.36-10.35 473.36-18.45L473.36-18.45Q473.36-26.65 470.43-30.63 467.51-34.6 461.86-34.6L461.86-34.6Q456.11-34.6 453.16-30.6 450.21-26.6 450.21-18.45L450.21-18.45Q450.21-10.35 453.18-6.45 456.16-2.55 461.91-2.55L461.91-2.55ZM485.6 0L485.6 0Q485 0 485-0.6L485-0.6 485-25.95Q485-26.5 485.5-26.5L485.5-26.5 487.65-26.5Q488.15-26.5 488.15-26L488.15-26 488.15-23.05Q488.15-22.8 488.28-22.73 488.4-22.65 488.6-22.9L488.6-22.9Q490.35-24.2 491.8-25.13 493.25-26.05 494.75-26.53 496.25-27 498-27L498-27Q501.95-27 504-24.93 506.05-22.85 506.05-19.55L506.05-19.55 506.05-0.65Q506.05 0 505.45 0L505.45 0 503.35 0Q503.05 0 502.9-0.15 502.75-0.3 502.75-0.6L502.75-0.6 502.75-18.65Q502.75-21.3 501.43-22.78 500.1-24.25 497.2-24.25L497.2-24.25Q495.6-24.25 494.23-23.78 492.85-23.3 491.45-22.38 490.05-21.45 488.3-20L488.3-20 488.3-0.6Q488.3 0 487.65 0L487.65 0 485.6 0ZM515.85-11.75L515.85-11.75Q515.85-9.2 517.1-7 518.35-4.8 520.43-3.48 522.5-2.15 525.1-2.15L525.1-2.15Q527.85-2.15 529.88-3.25 531.9-4.35 533.3-6.5L533.3-6.5Q533.45-6.75 533.6-6.78 533.75-6.8 533.95-6.7L533.95-6.7 535.65-5.75Q536.05-5.55 535.7-5.15L535.7-5.15Q534.45-3.25 532.88-2 531.3-0.75 529.3-0.13 527.3 0.5 524.9 0.5L524.9 0.5Q521.2 0.5 518.4-1.2 515.6-2.9 514-5.98 512.4-9.05 512.4-13L512.4-13Q512.4-17.4 514.05-20.5 515.7-23.6 518.5-25.3 521.3-27 524.85-27L524.85-27Q528.45-27 531.1-25.4 533.75-23.8 535.2-20.8 536.65-17.8 536.65-13.55L536.65-13.55Q536.65-13.2 536.58-12.85 536.5-12.5 535.95-12.5L535.95-12.5 516.2-12.5Q516.05-12.5 515.95-12.28 515.85-12.05 515.85-11.75L515.85-11.75ZM515.9-14.85L532.45-14.85Q533-14.85 533.15-15 533.3-15.15 533.3-15.55L533.3-15.55Q533.3-17.95 532.28-19.98 531.25-22 529.38-23.23 527.5-24.45 524.9-24.45L524.9-24.45Q521.95-24.45 519.95-23.03 517.95-21.6 516.93-19.4 515.9-17.2 515.9-14.85L515.9-14.85ZM551.9-34.55L551.9-36.6Q551.9-36.85 552-36.98 552.1-37.1 552.4-37.1L552.4-37.1 578.8-37.1Q579.1-37.1 579.2-36.98 579.3-36.85 579.3-36.6L579.3-36.6 579.3-34.55Q579.3-34.1 578.8-34.1L578.8-34.1 568.45-34.1Q567.9-34.1 567.9-33.65L567.9-33.65 567.9-0.6Q567.9 0 567.4 0L567.4 0 564.7 0Q564.15 0 564.15-0.6L564.15-0.6 564.15-33.65Q564.15-34.1 563.65-34.1L563.65-34.1 552.4-34.1Q551.9-34.1 551.9-34.55L551.9-34.55ZM597.24-3.35L597.24-3.35Q595.29-1.45 593.04-0.48 590.79 0.5 588.09 0.5L588.09 0.5Q584.19 0.5 581.94-1.48 579.69-3.45 579.69-6.75L579.69-6.75Q579.69-9.35 581.14-11.23 582.59-13.1 585.44-14.2 588.29-15.3 592.49-15.6L592.49-15.6 596.94-15.95Q597.34-16 597.57-16.18 597.79-16.35 597.79-16.7L597.79-16.7 597.79-18.15Q597.79-21.05 595.97-22.75 594.14-24.45 591.09-24.45L591.09-24.45Q588.74-24.45 586.84-23.38 584.94-22.3 583.39-20.2L583.39-20.2Q583.24-20 583.12-19.93 582.99-19.85 582.74-19.95L582.74-19.95 580.69-20.8Q580.54-20.9 580.49-21.03 580.44-21.15 580.64-21.45L580.64-21.45Q582.19-23.95 584.82-25.48 587.44-27 591.24-27L591.24-27Q594.39-27 596.57-25.98 598.74-24.95 599.87-23 600.99-21.05 600.99-18.4L600.99-18.4 600.99-0.65Q600.99-0.25 600.87-0.13 600.74 0 600.39 0L600.39 0 598.54 0Q598.24 0 598.09-0.18 597.94-0.35 597.94-0.65L597.94-0.65 597.84-3.25Q597.74-3.95 597.24-3.35L597.24-3.35ZM597.79-12.95L597.79-12.95Q597.79-13.8 597.09-13.7L597.09-13.7 593.34-13.4Q590.74-13.25 588.82-12.75 586.89-12.25 585.59-11.45 584.29-10.65 583.64-9.58 582.99-8.5 582.99-7.1L582.99-7.1Q582.99-4.75 584.64-3.43 586.29-2.1 589.09-2.1L589.09-2.1Q590.79-2.1 592.39-2.73 593.99-3.35 595.24-4.3L595.24-4.3Q596.44-5.35 597.12-6.45 597.79-7.55 597.79-8.55L597.79-8.55 597.79-12.95ZM624.74-20.9L624.74-20.9Q623.64-22.5 621.76-23.48 619.89-24.45 617.29-24.45L617.29-24.45Q614.39-24.45 612.46-23.23 610.54-22 610.54-19.85L610.54-19.85Q610.54-18.7 611.41-17.68 612.29-16.65 614.94-15.8L614.94-15.8 621.44-13.8Q624.69-12.85 626.19-11.13 627.69-9.4 627.69-7.1L627.69-7.1Q627.69-4.85 626.31-3.15 624.94-1.45 622.54-0.48 620.14 0.5 617.14 0.5L617.14 0.5Q613.34 0.5 610.41-1.05 607.49-2.6 606.24-5.05L606.24-5.05Q606.14-5.25 606.14-5.4 606.14-5.55 606.34-5.7L606.34-5.7 607.94-6.65Q608.14-6.75 608.31-6.73 608.49-6.7 608.59-6.55L608.59-6.55Q609.44-5.2 610.64-4.2 611.84-3.2 613.46-2.65 615.09-2.1 617.19-2.1L617.19-2.1Q619.24-2.1 620.89-2.68 622.54-3.25 623.51-4.3 624.49-5.35 624.49-6.75L624.49-6.75Q624.49-8.25 623.26-9.33 622.04-10.4 619.14-11.2L619.14-11.2 614.04-12.7Q610.24-13.8 608.81-15.48 607.39-17.15 607.39-19.25L607.39-19.25Q607.39-21.6 608.66-23.33 609.94-25.05 612.19-26.03 614.44-27 617.34-27L617.34-27Q620.59-27 623.14-25.75 625.69-24.5 627.09-22.35L627.09-22.35Q627.24-22.2 627.24-22.05 627.24-21.9 627.04-21.8L627.04-21.8 625.34-20.8Q625.19-20.75 625.04-20.75 624.89-20.75 624.74-20.9L624.74-20.9ZM656.24-0.75L656.24-0.75Q656.44-0.4 656.36-0.2 656.29 0 655.89 0L655.89 0 653.19 0Q652.94 0 652.74-0.13 652.54-0.25 652.44-0.5L652.44-0.5 644.19-14.15Q644.14-14.3 644.04-14.35 643.94-14.4 643.69-14.15L643.69-14.15 637.94-8.35Q637.74-8.15 637.66-7.95 637.59-7.75 637.59-7.4L637.59-7.4 637.59-0.75Q637.59-0.3 637.44-0.15 637.29 0 636.84 0L636.84 0 634.99 0Q634.54 0 634.41-0.13 634.29-0.25 634.29-0.6L634.29-0.6 634.29-36.5Q634.29-37.1 634.84-37.1L634.84-37.1 637.09-37.1Q637.59-37.1 637.59-36.5L637.59-36.5 637.59-12.6Q637.59-12.2 637.69-12.15 637.79-12.1 638.09-12.4L638.09-12.4 651.24-25.95Q651.74-26.5 652.19-26.5L652.19-26.5 654.64-26.5Q655.09-26.5 655.14-26.25 655.19-26 654.84-25.65L654.84-25.65 646.69-17.35Q646.59-17.2 646.54-17.05 646.49-16.9 646.64-16.6L646.64-16.6 656.24-0.75ZM688.28-3.35L688.28-3.35Q686.33-1.45 684.08-0.48 681.83 0.5 679.13 0.5L679.13 0.5Q675.23 0.5 672.98-1.48 670.73-3.45 670.73-6.75L670.73-6.75Q670.73-9.35 672.18-11.23 673.63-13.1 676.48-14.2 679.33-15.3 683.53-15.6L683.53-15.6 687.98-15.95Q688.38-16 688.61-16.18 688.83-16.35 688.83-16.7L688.83-16.7 688.83-18.15Q688.83-21.05 687.01-22.75 685.18-24.45 682.13-24.45L682.13-24.45Q679.78-24.45 677.88-23.38 675.98-22.3 674.43-20.2L674.43-20.2Q674.28-20 674.16-19.93 674.03-19.85 673.78-19.95L673.78-19.95 671.73-20.8Q671.58-20.9 671.53-21.03 671.48-21.15 671.68-21.45L671.68-21.45Q673.23-23.95 675.86-25.48 678.48-27 682.28-27L682.28-27Q685.43-27 687.61-25.98 689.78-24.95 690.91-23 692.03-21.05 692.03-18.4L692.03-18.4 692.03-0.65Q692.03-0.25 691.91-0.13 691.78 0 691.43 0L691.43 0 689.58 0Q689.28 0 689.13-0.18 688.98-0.35 688.98-0.65L688.98-0.65 688.88-3.25Q688.78-3.95 688.28-3.35L688.28-3.35ZM688.83-12.95L688.83-12.95Q688.83-13.8 688.13-13.7L688.13-13.7 684.38-13.4Q681.78-13.25 679.86-12.75 677.93-12.25 676.63-11.45 675.33-10.65 674.68-9.58 674.03-8.5 674.03-7.1L674.03-7.1Q674.03-4.75 675.68-3.43 677.33-2.1 680.13-2.1L680.13-2.1Q681.83-2.1 683.43-2.73 685.03-3.35 686.28-4.3L686.28-4.3Q687.48-5.35 688.16-6.45 688.83-7.55 688.83-8.55L688.83-8.55 688.83-12.95ZM711.88-23.95L705.33-23.95Q704.93-23.95 704.93-23.55L704.93-23.55 704.93-6.75Q704.93-4.2 705.73-3.4 706.53-2.6 708.08-2.6L708.08-2.6 711.73-2.6Q711.98-2.6 712.1-2.48 712.23-2.35 712.23-2.1L712.23-2.1 712.23-0.75Q712.23-0.35 711.73-0.2L711.73-0.2Q711.28-0.15 710.4-0.1 709.53-0.05 708.68-0.03 707.83 0 707.38 0L707.38 0Q704.28 0 702.95-1.43 701.63-2.85 701.63-6.05L701.63-6.05 701.63-23.5Q701.63-23.95 701.18-23.95L701.18-23.95 696.93-23.95Q696.48-23.95 696.48-24.35L696.48-24.35 696.48-26.1Q696.48-26.5 696.88-26.5L696.88-26.5 701.33-26.5Q701.63-26.5 701.68-26.9L701.68-26.9 702.18-34.9Q702.18-35.5 702.63-35.5L702.63-35.5 704.43-35.5Q704.98-35.5 704.98-34.85L704.98-34.85 704.98-26.9Q704.98-26.5 705.33-26.5L705.33-26.5 711.93-26.5Q712.33-26.5 712.33-26.1L712.33-26.1 712.33-24.35Q712.33-23.95 711.88-23.95L711.88-23.95ZM744.47-3.35L744.47-3.35Q742.52-1.45 740.27-0.48 738.02 0.5 735.32 0.5L735.32 0.5Q731.42 0.5 729.17-1.48 726.92-3.45 726.92-6.75L726.92-6.75Q726.92-9.35 728.37-11.23 729.82-13.1 732.67-14.2 735.52-15.3 739.72-15.6L739.72-15.6 744.17-15.95Q744.57-16 744.8-16.18 745.02-16.35 745.02-16.7L745.02-16.7 745.02-18.15Q745.02-21.05 743.2-22.75 741.37-24.45 738.32-24.45L738.32-24.45Q735.97-24.45 734.07-23.38 732.17-22.3 730.62-20.2L730.62-20.2Q730.47-20 730.35-19.93 730.22-19.85 729.97-19.95L729.97-19.95 727.92-20.8Q727.77-20.9 727.72-21.03 727.67-21.15 727.87-21.45L727.87-21.45Q729.42-23.95 732.05-25.48 734.67-27 738.47-27L738.47-27Q741.62-27 743.8-25.98 745.97-24.95 747.1-23 748.22-21.05 748.22-18.4L748.22-18.4 748.22-0.65Q748.22-0.25 748.1-0.13 747.97 0 747.62 0L747.62 0 745.77 0Q745.47 0 745.32-0.18 745.17-0.35 745.17-0.65L745.17-0.65 745.07-3.25Q744.97-3.95 744.47-3.35L744.47-3.35ZM745.02-12.95L745.02-12.95Q745.02-13.8 744.32-13.7L744.32-13.7 740.57-13.4Q737.97-13.25 736.05-12.75 734.12-12.25 732.82-11.45 731.52-10.65 730.87-9.58 730.22-8.5 730.22-7.1L730.22-7.1Q730.22-4.75 731.87-3.43 733.52-2.1 736.32-2.1L736.32-2.1Q738.02-2.1 739.62-2.73 741.22-3.35 742.47-4.3L742.47-4.3Q743.67-5.35 744.35-6.45 745.02-7.55 745.02-8.55L745.02-8.55 745.02-12.95ZM765.07-34.55L765.07-36.6Q765.07-36.85 765.17-36.98 765.27-37.1 765.57-37.1L765.57-37.1 791.97-37.1Q792.27-37.1 792.37-36.98 792.47-36.85 792.47-36.6L792.47-36.6 792.47-34.55Q792.47-34.1 791.97-34.1L791.97-34.1 781.62-34.1Q781.07-34.1 781.07-33.65L781.07-33.65 781.07-0.6Q781.07 0 780.57 0L780.57 0 777.87 0Q777.32 0 777.32-0.6L777.32-0.6 777.32-33.65Q777.32-34.1 776.82-34.1L776.82-34.1 765.57-34.1Q765.07-34.1 765.07-34.55L765.07-34.55ZM802.12-25.9L802.12-0.75Q802.12-0.3 801.97-0.15 801.82 0 801.32 0L801.32 0 799.47 0Q799.07 0 798.94-0.13 798.82-0.25 798.82-0.6L798.82-0.6 798.82-25.9Q798.82-26.5 799.37-26.5L799.37-26.5 801.57-26.5Q802.12-26.5 802.12-25.9L802.12-25.9ZM802.32-36.4L802.32-32.55Q802.32-31.65 801.57-31.65L801.57-31.65 799.27-31.65Q798.87-31.65 798.74-31.85 798.62-32.05 798.62-32.45L798.62-32.45 798.62-36.35Q798.62-37.1 799.27-37.1L799.27-37.1 801.67-37.1Q802.32-37.1 802.32-36.4L802.32-36.4ZM811.01 0L811.01 0Q810.41 0 810.41-0.6L810.41-0.6 810.41-25.95Q810.41-26.5 810.91-26.5L810.91-26.5 813.06-26.5Q813.56-26.5 813.56-26L813.56-26 813.56-23.05Q813.56-22.8 813.66-22.73 813.76-22.65 814.01-22.9L814.01-22.9Q815.66-24.2 817.06-25.13 818.46-26.05 819.89-26.53 821.31-27 823.01-27L823.01-27Q826.06-27 827.81-25.63 829.56-24.25 830.11-22.65L830.11-22.65Q830.21-22.45 830.41-22.5 830.61-22.55 830.81-22.75L830.81-22.75Q832.51-24.1 833.94-25.05 835.36-26 836.81-26.5 838.26-27 839.96-27L839.96-27Q843.61-27 845.59-24.93 847.56-22.85 847.56-19.5L847.56-19.5 847.56-0.65Q847.56 0 846.91 0L846.91 0 844.81 0Q844.56 0 844.41-0.15 844.26-0.3 844.26-0.6L844.26-0.6 844.26-18.65Q844.26-21.3 843.04-22.78 841.81-24.25 839.11-24.25L839.11-24.25Q837.51-24.25 836.06-23.68 834.61-23.1 833.46-22.25 832.31-21.4 831.41-20.65L831.41-20.65Q830.96-20.3 830.79-20 830.61-19.7 830.61-19.15L830.61-19.15 830.61-0.65Q830.61 0 830.01 0L830.01 0 827.91 0Q827.61 0 827.46-0.15 827.31-0.3 827.31-0.6L827.31-0.6 827.31-18.65Q827.31-21.3 826.11-22.78 824.91-24.25 822.16-24.25L822.16-24.25Q819.91-24.25 818.06-23.2 816.21-22.15 813.71-20L813.71-20 813.71-0.6Q813.71 0 813.06 0L813.06 0 811.01 0ZM857.31-11.75L857.31-11.75Q857.31-9.2 858.56-7 859.81-4.8 861.89-3.48 863.96-2.15 866.56-2.15L866.56-2.15Q869.31-2.15 871.34-3.25 873.36-4.35 874.76-6.5L874.76-6.5Q874.91-6.75 875.06-6.78 875.21-6.8 875.41-6.7L875.41-6.7 877.11-5.75Q877.51-5.55 877.16-5.15L877.16-5.15Q875.91-3.25 874.34-2 872.76-0.75 870.76-0.13 868.76 0.5 866.36 0.5L866.36 0.5Q862.66 0.5 859.86-1.2 857.06-2.9 855.46-5.98 853.86-9.05 853.86-13L853.86-13Q853.86-17.4 855.51-20.5 857.16-23.6 859.96-25.3 862.76-27 866.31-27L866.31-27Q869.91-27 872.56-25.4 875.21-23.8 876.66-20.8 878.11-17.8 878.11-13.55L878.11-13.55Q878.11-13.2 878.04-12.85 877.96-12.5 877.41-12.5L877.41-12.5 857.66-12.5Q857.51-12.5 857.41-12.28 857.31-12.05 857.31-11.75L857.31-11.75ZM857.36-14.85L873.91-14.85Q874.46-14.85 874.61-15 874.76-15.15 874.76-15.55L874.76-15.55Q874.76-17.95 873.74-19.98 872.71-22 870.84-23.23 868.96-24.45 866.36-24.45L866.36-24.45Q863.41-24.45 861.41-23.03 859.41-21.6 858.39-19.4 857.36-17.2 857.36-14.85L857.36-14.85Z" opacity="1" transform="matrix(1,0,0,1,0,0)" fill="#5ebc67" class="slogan-text-1" data-fill-palette-color="secondary" id="text-1"></path></svg></g></svg></g></svg></g></svg></g><g></g></svg></g><defs></defs></svg><rect width="395.52" height="105.61830123868553" fill="none" stroke="none" visibility="hidden"></rect></g></svg></g></svg>